# xmcd
#
# Track frame offsets:
#	150
#	13236
#	32843
#	46599
#	58047
#	73155
#	88857
#	106162
#	121381
#	131061
#	146635
#	158245
#	176997
#	204119
#	212567
#	248060
#	255441
#
# Disc length: 3547 seconds
#
# Revision: 0
# Processed by: cddbd v1.5.2PL0 Copyright (c) Steve Scherf et al.
# Submitted via: EZCDAudioConverter 2.0.7.1
#
DISCID=f20dd911
DTITLE=Gospel Travelers - Travelin' On
DYEAR=2015
DGENRE=
TTITLE0=The Lamb, The Lion and The King
TTITLE1=I can't Even Walk (Without You Holding My Hand)
TTITLE2=Come and Dine
TTITLE3=The Day He Opened the Door
TTITLE4=Lead Me Home
TTITLE5=Jesus Hold My Hand
TTITLE6=Just a Closer Walk
TTITLE7=I Saw a Man
TTITLE8=Just a Little Talk with Jesus
TTITLE9=Family Bible
TTITLE10=Unclouded Day
TTITLE11=Beyond the Rain
TTITLE12=The Anchor Holds
TTITLE13=Jesus Would Love Me the Same
TTITLE14=How Great Thou Art
TTITLE15=Jesus Will Always Love You
TTITLE16=Softly and Tenderly
EXTD=
EXTT0=
EXTT1=
EXTT2=
EXTT3=
EXTT4=
EXTT5=
EXTT6=
EXTT7=
EXTT8=
EXTT9=
EXTT10=
EXTT11=
EXTT12=
EXTT13=
EXTT14=
EXTT15=
EXTT16=
PLAYORDER=
